Coordinates
version=1
nRows=12
nColumns=42
inDegrees=yes

Units are S.I. units (second, meters, Newtons, ...)
If the header above contains a line with 'inDegrees', this indicates whether rotational values are in degrees (yes) or radians (no).

endheader
time	pelvis_tilt	pelvis_list	pelvis_rotation	pelvis_tx	pelvis_ty	pelvis_tz	hip_flexion_r	hip_adduction_r	hip_rotation_r	knee_angle_r	knee_adduction_r	knee_angle_r_beta	ankle_angle_r	subtalar_angle_r	mtp_angle_r	hip_flexion_l	hip_adduction_l	hip_rotation_l	knee_angle_l	knee_adduction_l	knee_angle_l_beta	ankle_angle_l	subtalar_angle_l	mtp_angle_l	lumbar_extension	lumbar_bending	lumbar_rotation	arm_flex_r	arm_add_r	arm_rot_r	elbow_flex_r	pro_sup_r	wrist_flex_r	wrist_dev_r	arm_flex_l	arm_add_l	arm_rot_l	elbow_flex_l	pro_sup_l	wrist_flex_l	wrist_dev_l
      0.00000000	      3.02210452	      0.26030919	     -1.09187096	     -2.10641354	      0.97601297	      0.26637007	     16.39368856	     -7.08778849	     -7.33913299	     38.48285301	      5.25805615	      0.67165249	     10.36743361	      3.98540265	     -9.61863208	     -6.38746806	      2.57788195	     -6.76523256	      3.66484343	     -0.99174048	      0.06396358	      9.70234860	     17.99492213	     -9.61863208	    -11.35199467	     -0.30360288	     -2.20895167	     -7.15759477	    -11.76982809	      7.11038458	     28.86523780	     90.00000001	      0.00000000	      0.00000000	     10.17009105	    -17.97705195	     21.64612648	     32.38823699	     90.00000001	      0.00000000	      0.00000000
      0.01000000	      2.90453672	      0.44851168	     -1.13615780	     -2.10102333	      0.97523624	      0.26637732	     16.96885231	     -7.26653333	     -7.82529940	     37.34827761	      5.11207227	      0.65185041	     10.37728663	      3.98662853	     -9.60072961	     -6.59596784	      2.81284895	     -6.93403215	      3.70092121	     -1.02384686	      0.06459326	      9.96051848	     17.97830686	     -9.60072961	    -11.17756541	     -0.42845780	     -2.15089089	     -7.46258920	    -11.72277054	      7.13505141	     28.73534356	     90.00000001	      0.00000000	      0.00000000	     10.47925479	    -18.00444347	     21.57945438	     32.75130790	     90.00000001	      0.00000000	      0.00000000
      0.02000000	      2.79516398	      0.60779865	     -1.12564871	     -2.09417781	      0.97433094	      0.26637964	     17.50411381	     -7.37177723	     -8.41475988	     35.66391092	      4.94236665	      0.62245267	     10.34136256	      4.19539465	     -9.57908494	     -6.93122291	      3.06214654	     -6.98192331	      3.69349288	     -1.14838282	      0.06446361	     10.39628338	     18.06957975	     -9.57908494	    -11.00111951	     -0.49420722	     -2.20282890	     -7.74060848	    -11.65995576	      7.13559125	     28.52632253	     90.00000001	      0.00000000	      0.00000000	     10.78400543	    -18.12018850	     21.49806471	     33.32128196	     90.00000001	      0.00000000	      0.00000000
      0.03000000	      3.32281267	      0.15351500	     -0.75463196	     -2.08564671	      0.97414190	      0.26665947	     16.99684130	     -6.81768462	     -9.73846373	     33.17826631	      4.64394857	      0.57906999	     10.28814821	      5.15915688	     -9.49207224	     -8.17132520	      2.42876727	     -6.86854596	      3.50604492	     -1.00177722	      0.06119203	     11.08544924	     18.72929240	     -9.49207224	    -11.51868802	      0.11861488	     -2.51702841	     -7.92537695	    -11.50392792	      6.87213604	     28.03394865	     90.00000001	      0.00000000	      0.00000000	     11.02595850	    -18.38184302	     21.54106338	     34.44591758	     90.00000001	      0.00000000	      0.00000000
      0.04000000	      3.12949184	      0.49931302	     -0.82782117	     -2.07681254	      0.97264310	      0.26677534	     17.75913282	     -7.09672789	    -10.48003440	     31.11331012	      4.44312398	      0.54302970	     10.19537400	      5.42438648	     -9.47059924	     -8.52836823	      2.87683949	     -7.07603560	      3.53880947	     -1.10991671	      0.06176388	     11.54581191	     18.73638516	     -9.47059924	    -11.23061693	     -0.12519641	     -2.49388225	     -8.31830856	    -11.42659723	      6.87805287	     27.81076107	     90.00000001	      0.00000000	      0.00000000	     11.41026175	    -18.48991745	     21.45150461	     35.08834912	     90.00000001	      0.00000000	      0.00000000
      0.05000000	      3.57487951	      0.20242156	     -0.51082302	     -2.06697298	      0.97196220	      0.26710630	     17.29700016	     -6.69084329	    -11.58111785	     28.15223833	      4.34812037	      0.49134925	     10.03914534	      6.59424666	     -9.39876275	     -9.75621724	      2.43563622	     -6.97152341	      3.36370116	     -1.00839682	      0.05870766	     12.27274855	     19.33668977	     -9.39876275	    -11.64954591	      0.34635073	     -2.82103427	     -8.45734125	    -11.25319104	      6.63287670	     27.20213984	     90.00000001	      0.00000000	      0.00000000	     11.59954811	    -18.82239096	     21.46190427	     36.46838676	     90.00000001	      0.00000000	      0.00000000
      0.06000000	      3.40673800	      0.47526276	     -0.46816150	     -2.05736313	      0.97022546	      0.26728591	     17.81401703	     -6.91638062	    -12.16186504	     25.60367150	      4.40173606	      0.44686837	      9.73997691	      7.36876005	     -9.36885860	    -10.19115330	      2.78870888	     -6.97974746	      3.39071149	     -1.15563393	      0.05917908	     12.87409351	     19.49467481	     -9.36885860	    -11.41588739	      0.20409374	     -2.91977600	     -8.78047421	    -11.14248688	      6.59489747	     26.88568417	     90.00000001	      0.00000000	      0.00000000	     11.90881254	    -18.99509356	     21.37934422	     37.40464656	     90.00000001	      0.00000000	      0.00000000
      0.07000000	      3.80833521	      0.28709774	     -0.25779259	     -2.04701082	      0.96915662	      0.26788739	     17.39276966	     -6.56112998	    -13.17860679	     22.69467805	      4.28921648	      0.39609685	      9.53120488	      8.39324305	     -9.30120160	    -11.36328268	      2.45079849	     -7.03585082	      3.30125288	     -1.03200362	      0.05761773	     13.52101617	     19.87789307	     -9.30120160	    -11.76692265	      0.54364475	     -3.17087292	     -8.93654557	    -10.98069923	      6.35671874	     26.34403449	     90.00000001	      0.00000000	      0.00000000	     12.05035936	    -19.32138626	     21.34945902	     38.71525185	     90.00000001	      0.00000000	      0.00000000
      0.08000000	      3.65708599	      0.54059707	     -0.19780496	     -2.03716003	      0.96726049	      0.26823584	     17.76418870	     -6.75435135	    -13.68689143	     20.18001238	      4.38951450	      0.35220766	      9.21290021	      9.30746617	     -9.26939058	    -11.80559742	      2.76004742	     -6.98983254	      3.38235162	     -1.16379023	      0.05903317	     14.14089909	     19.97483806	     -9.26939058	    -11.55403552	      0.42296379	     -3.31306212	     -9.20106105	    -10.87310159	      6.30127045	     26.02764648	     90.00000001	      0.00000000	      0.00000000	     12.24072130	    -19.52654805	     21.26096683	     39.70848727	     90.00000001	      0.00000000	      0.00000000
      0.09000000	      3.55026392	      0.73374628	     -0.11720830	     -2.02737950	      0.96538307	      0.26865039	     18.01751671	     -6.86108342	    -14.16552155	     17.72913642	      4.45677183	      0.30943180	      8.90023826	     10.32175438	     -9.24456202	    -12.28167802	      3.00591442	     -6.88879007	      3.47308706	     -1.32628629	      0.06061680	     14.77139595	     20.03033582	     -9.24456202	    -11.41401818	      0.37522672	     -3.50304515	     -9.37906920	    -10.76642222	      6.25107992	     25.71379412	     90.00000001	      0.00000000	      0.00000000	     12.35098079	    -19.74711232	     21.17195250	     40.76455935	     90.00000001	      0.00000000	      0.00000000
      0.10000000	      3.61085680	      0.74887671	      0.03131583	     -2.01738255	      0.96370326	      0.26917892	     17.92546501	     -6.77970535	    -14.66554350	     15.28968969	      4.53722341	      0.26685543	      8.61969554	     11.50110769	     -9.21627143	    -12.95860568	      2.97013221	     -6.67562034	      3.58562136	     -1.34566462	      0.06258090	     15.40036053	     20.06458800	     -9.21627143	    -11.43062449	      0.51498709	     -3.71510143	     -9.51568268	    -10.67030856	      6.15239861	     25.29585372	     90.00000001	      0.00000000	      0.00000000	     12.38716900	    -19.99723069	     21.08840701	     41.99983942	     90.00000001	      0.00000000	      0.00000000
      0.11000000	      3.59319740	      0.76923741	      0.16021832	     -2.00748884	      0.96195346	      0.26976063	     17.95925860	     -6.71186925	    -15.13029670	     13.18577980	      4.58927719	      0.23013527	      8.33518938	     12.59005711	     -9.19189001	    -13.53315881	      2.97712065	     -6.49920393	      3.70345339	     -1.45136713	      0.06463746	     15.99796205	     20.01626403	     -9.19189001	    -11.38293543	      0.65625965	     -3.91788901	     -9.65543606	    -10.59486770	      6.04042409	     25.00921010	     90.00000001	      0.00000000	      0.00000000	     12.38575236	    -20.20472397	     21.02146636	     43.06383316	     90.00000001	      0.00000000	      0.00000000
